<svg xmlns="http://www.w3.org/2000/svg" width="42" height="42" viewBox="0 0 42 42">
  <defs>
    <style>
      .cls-1 {
        fill: #fff;
        fill-rule: evenodd;
      }
    </style>
  </defs>
  <path id="fb" class="cls-1" d="M1026,801H993a4.5,4.5,0,0,0-4.5,4.5v33A4.5,4.5,0,0,0,993,843h12.87V828.721h-5.909V822h5.909v-5.122c0-5.827,3.47-9.046,8.78-9.046a35.73,35.73,0,0,1,5.2.454v5.719h-2.93c-2.89,0-3.79,1.792-3.79,3.631V822h6.45l-1.03,6.721h-5.42V843H1026a4.5,4.5,0,0,0,4.5-4.5v-33A4.5,4.5,0,0,0,1026,801Z" transform="translate(-988.5 -801)"/>
</svg>
