<svg xmlns="http://www.w3.org/2000/svg" width="54.781" height="52.219" viewBox="0 0 54.781 52.219">
  <defs>
    <style>
      .cls-1 {
        fill: #fff;
        fill-rule: evenodd;
      }
    </style>
  </defs>
  <path id="line" class="cls-1" d="M712.9,832.913c3.97-4.353,5.872-8.772,5.872-13.678,0-12.258-12.288-22.23-27.391-22.23s-27.391,9.972-27.391,22.23c0,10.989,9.745,20.193,22.908,21.934,0.891,0.192,2.105.589,2.413,1.351A5.614,5.614,0,0,1,689.4,845s-0.32,1.934-.39,2.346c-0.119.692-.551,2.708,2.372,1.477s15.774-9.29,21.52-15.906h0m-32.241-6.385h-5.442a1.438,1.438,0,0,1-1.436-1.437V814.205a1.436,1.436,0,1,1,2.872,0v9.45h4.006A1.437,1.437,0,0,1,680.657,826.528Zm5.629-1.437a1.436,1.436,0,1,1-2.871,0V814.205a1.436,1.436,0,1,1,2.871,0v10.886Zm13.1,0a1.436,1.436,0,0,1-2.585.862l-5.578-7.6v6.734a1.437,1.437,0,1,1-2.873,0V814.205a1.436,1.436,0,0,1,2.585-.862l5.579,7.6v-6.735a1.436,1.436,0,1,1,2.872,0v10.886Zm8.807-6.879a1.437,1.437,0,0,1,0,2.873h-4v2.57h4a1.437,1.437,0,0,1,0,2.873h-5.443a1.438,1.438,0,0,1-1.436-1.437V814.205a1.438,1.438,0,0,1,1.436-1.436h5.443a1.437,1.437,0,0,1,0,2.873h-4v2.57h4Z" transform="translate(-664 -797)"/>
</svg>
