<?xml version="1.0" encoding="UTF-8"?><svg id="_圖層_2" xmlns="http://www.w3.org/2000/svg" viewBox="0 0 34.65 20.96"><defs><style>.cls-1{fill:#e40011;}</style></defs><g id="_圖層_1-2"><g><path d="M6.54,2.33l-1.88,4.9h5.19s1.07-2.78,1.07-2.78h7.06s1.29-.03,2.26-.59,2.12-1.67,2.89-3.86c-1.43,.03-12.63,0-12.63,0,0,0-3.09,.04-3.97,2.33Z"/><path d="M4.42,8.11L0,20.88s2.05,.39,4.2-.93c1.74-1.29,2.23-2.48,2.23-2.48l1.7-4.8h6.5s1.4,.11,2.96-.62,2.61-3.94,2.61-3.94H4.42Z"/><path class="cls-1" d="M22.3,4.52s.6-1.67,1.99-2.89,3.09-1.64,3.09-1.64h7.27l-5.6,16.39h4.42s-.84,2.3-2.05,3.41-2.94,1.17-2.94,1.17h-10.63s.9-2.51,2.54-3.53,3.2-.94,3.2-.94l4.14-12.06-5.43,.09Z"/></g></g></svg>