<?xml version="1.0" encoding="UTF-8"?><svg xmlns="http://www.w3.org/2000/svg" viewBox="0 0 73.24 20.96"><defs><style>.d{fill:#9e9e9f;}.e{fill:#e40011;}</style></defs><g id="a"/><g id="b"><g id="c"><g><g><path d="M6.54,2.33l-1.88,4.9h5.19l1.07-2.78h7.06s1.29-.03,2.26-.59,2.12-1.67,2.89-3.86c-1.43,.03-12.63,0-12.63,0,0,0-3.09,.04-3.97,2.33Z"/><path d="M4.42,8.11L0,20.88s2.05,.39,4.2-.93c1.74-1.29,2.23-2.48,2.23-2.48l1.7-4.8h6.5s1.4,.11,2.96-.62,2.61-3.94,2.61-3.94H4.42Z"/><path class="e" d="M22.3,4.52s.6-1.67,1.99-2.89,3.09-1.64,3.09-1.64h7.27l-5.6,16.39h4.42s-.84,2.3-2.05,3.41-2.94,1.17-2.94,1.17h-10.63s.9-2.51,2.54-3.53,3.2-.94,3.2-.94l4.14-12.06-5.43,.09Z"/></g><g><path class="d" d="M42.28,13.57c-.44,1.22-1.23,1.82-2.36,1.83h-3.62c-1.14,0-1.49-.61-1.05-1.82l1.19-3.27c.23-.63,.54-1.1,.93-1.39,.38-.29,.88-.43,1.49-.43h5.19l-.46,1.26h-5.31l-1.59,4.37h3.79l1.02-2.81h1.6l-.83,2.28Z"/><path class="d" d="M48.82,15.39h-1.63l1.05-2.89h-3.7l-1.05,2.89h-1.63l2.02-5.55c.17-.46,.44-.81,.83-1.04,.36-.22,.77-.33,1.24-.33h3.83c.46,0,.78,.11,.98,.34,.21,.25,.24,.59,.08,1.04l-2.02,5.55Zm-.24-3.83l.67-1.83h-3.7l-.67,1.83h3.7Z"/><path class="d" d="M57.54,15.39h-1.5l1.42-3.9c.18-.51,.42-1.03,.7-1.56h-.25l-3.72,5.46h-1.55l.15-5.46h-.25c-.11,.56-.24,1.08-.42,1.56l-1.42,3.9h-1.51l2.52-6.92h2.44l-.09,3.56c-.02,.74-.08,1.32-.18,1.75h.27c.21-.36,.56-.94,1.08-1.75l2.42-3.57h2.43l-2.52,6.92Z"/><path class="d" d="M66.16,9.73h-4.36l-.6,1.64h4.34l-.4,1.11h-4.34l-.59,1.64h4.33l-.47,1.28h-5.98l2.52-6.92h6.01l-.46,1.26Z"/><path class="d" d="M71.62,14.19c-.15,.41-.42,.71-.81,.92-.34,.18-.72,.27-1.15,.27h-5.32l.47-1.28h5.29l.6-1.65h-3.33c-.74,0-1.21-.06-1.4-.18-.23-.15-.26-.49-.06-1.02l.55-1.5c.2-.55,.52-.91,.97-1.1,.31-.13,.78-.2,1.4-.2h4.44l-.46,1.26h-4.74l-.6,1.65h3.65c1.04,0,1.4,.43,1.08,1.29l-.56,1.53Z"/></g></g></g></g></svg>